<mxfile host="app.diagrams.net" modified="2023-07-14T03:11:59.589Z" agent="Mozilla/5.0 (Windows NT 10.0; Win64; x64) AppleWebKit/537.36 (KHTML, like Gecko) Chrome/114.0.0.0 Safari/537.36" etag="XyqABcdrzBSMXx7FjgT-" version="21.6.1" type="github">
  <diagram name="Page-1" id="uGyAnFLZ33Aw5FWYVsXX">
    <mxGraphModel dx="1434" dy="756" grid="1" gridSize="10" guides="1" tooltips="1" connect="1" arrows="1" fold="1" page="1" pageScale="1" pageWidth="850" pageHeight="1100" math="0" shadow="0">
      <root>
        <mxCell id="0" />
        <mxCell id="1" parent="0" />
        <mxCell id="50WObMACAJJd1p-I8gA1-3" style="edgeStyle=orthogonalEdgeStyle;rounded=0;orthogonalLoop=1;jettySize=auto;html=1;exitX=0.5;exitY=1;exitDx=0;exitDy=0;exitPerimeter=0;entryX=0.5;entryY=0;entryDx=0;entryDy=0;entryPerimeter=0;" edge="1" parent="1" source="50WObMACAJJd1p-I8gA1-1" target="50WObMACAJJd1p-I8gA1-2">
          <mxGeometry relative="1" as="geometry" />
        </mxCell>
        <mxCell id="50WObMACAJJd1p-I8gA1-1" value="Login/Register" style="strokeWidth=2;html=1;shape=mxgraph.flowchart.start_1;whiteSpace=wrap;" vertex="1" parent="1">
          <mxGeometry x="350" y="30" width="100" height="60" as="geometry" />
        </mxCell>
        <mxCell id="50WObMACAJJd1p-I8gA1-4" style="edgeStyle=orthogonalEdgeStyle;rounded=0;orthogonalLoop=1;jettySize=auto;html=1;exitX=1;exitY=0.5;exitDx=0;exitDy=0;exitPerimeter=0;entryX=1;entryY=0.5;entryDx=0;entryDy=0;entryPerimeter=0;" edge="1" parent="1" source="50WObMACAJJd1p-I8gA1-2" target="50WObMACAJJd1p-I8gA1-1">
          <mxGeometry relative="1" as="geometry" />
        </mxCell>
        <mxCell id="50WObMACAJJd1p-I8gA1-35" style="edgeStyle=orthogonalEdgeStyle;rounded=0;orthogonalLoop=1;jettySize=auto;html=1;exitX=0.5;exitY=1;exitDx=0;exitDy=0;exitPerimeter=0;entryX=0.5;entryY=0;entryDx=0;entryDy=0;" edge="1" parent="1" source="50WObMACAJJd1p-I8gA1-2" target="50WObMACAJJd1p-I8gA1-18">
          <mxGeometry relative="1" as="geometry" />
        </mxCell>
        <mxCell id="50WObMACAJJd1p-I8gA1-2" value="Authentication" style="strokeWidth=2;html=1;shape=mxgraph.flowchart.decision;whiteSpace=wrap;" vertex="1" parent="1">
          <mxGeometry x="350" y="130" width="100" height="90" as="geometry" />
        </mxCell>
        <mxCell id="50WObMACAJJd1p-I8gA1-34" style="edgeStyle=orthogonalEdgeStyle;rounded=0;orthogonalLoop=1;jettySize=auto;html=1;exitX=0.5;exitY=1;exitDx=0;exitDy=0;entryX=0.5;entryY=0;entryDx=0;entryDy=0;" edge="1" parent="1" source="50WObMACAJJd1p-I8gA1-8" target="50WObMACAJJd1p-I8gA1-23">
          <mxGeometry relative="1" as="geometry" />
        </mxCell>
        <mxCell id="50WObMACAJJd1p-I8gA1-8" value="Check Avaliable Tractors for hire." style="rounded=1;whiteSpace=wrap;html=1;absoluteArcSize=1;arcSize=14;strokeWidth=2;" vertex="1" parent="1">
          <mxGeometry x="150" y="270" width="100" height="60" as="geometry" />
        </mxCell>
        <mxCell id="50WObMACAJJd1p-I8gA1-30" style="edgeStyle=orthogonalEdgeStyle;rounded=0;orthogonalLoop=1;jettySize=auto;html=1;exitX=0.5;exitY=1;exitDx=0;exitDy=0;" edge="1" parent="1" source="50WObMACAJJd1p-I8gA1-9" target="50WObMACAJJd1p-I8gA1-21">
          <mxGeometry relative="1" as="geometry" />
        </mxCell>
        <mxCell id="50WObMACAJJd1p-I8gA1-9" value="List A tractor to be hired." style="rounded=1;whiteSpace=wrap;html=1;absoluteArcSize=1;arcSize=14;strokeWidth=2;" vertex="1" parent="1">
          <mxGeometry x="550" y="270" width="100" height="60" as="geometry" />
        </mxCell>
        <mxCell id="50WObMACAJJd1p-I8gA1-32" style="edgeStyle=orthogonalEdgeStyle;rounded=0;orthogonalLoop=1;jettySize=auto;html=1;exitX=1;exitY=0.5;exitDx=0;exitDy=0;entryX=0;entryY=0.5;entryDx=0;entryDy=0;" edge="1" parent="1" source="50WObMACAJJd1p-I8gA1-18" target="50WObMACAJJd1p-I8gA1-9">
          <mxGeometry relative="1" as="geometry" />
        </mxCell>
        <mxCell id="50WObMACAJJd1p-I8gA1-33" style="edgeStyle=orthogonalEdgeStyle;rounded=0;orthogonalLoop=1;jettySize=auto;html=1;exitX=0;exitY=0.5;exitDx=0;exitDy=0;entryX=1;entryY=0.5;entryDx=0;entryDy=0;" edge="1" parent="1" source="50WObMACAJJd1p-I8gA1-18" target="50WObMACAJJd1p-I8gA1-8">
          <mxGeometry relative="1" as="geometry" />
        </mxCell>
        <mxCell id="50WObMACAJJd1p-I8gA1-18" value="Home Page" style="rounded=1;whiteSpace=wrap;html=1;absoluteArcSize=1;arcSize=14;strokeWidth=2;" vertex="1" parent="1">
          <mxGeometry x="350" y="270" width="100" height="60" as="geometry" />
        </mxCell>
        <mxCell id="50WObMACAJJd1p-I8gA1-20" style="edgeStyle=orthogonalEdgeStyle;rounded=0;orthogonalLoop=1;jettySize=auto;html=1;exitX=0.5;exitY=1;exitDx=0;exitDy=0;" edge="1" parent="1" source="50WObMACAJJd1p-I8gA1-8" target="50WObMACAJJd1p-I8gA1-8">
          <mxGeometry relative="1" as="geometry" />
        </mxCell>
        <mxCell id="50WObMACAJJd1p-I8gA1-28" style="edgeStyle=orthogonalEdgeStyle;rounded=0;orthogonalLoop=1;jettySize=auto;html=1;exitX=0.5;exitY=1;exitDx=0;exitDy=0;entryX=0.5;entryY=0;entryDx=0;entryDy=0;" edge="1" parent="1" source="50WObMACAJJd1p-I8gA1-21" target="50WObMACAJJd1p-I8gA1-22">
          <mxGeometry relative="1" as="geometry" />
        </mxCell>
        <mxCell id="50WObMACAJJd1p-I8gA1-21" value="Enter Tractor Details" style="rounded=1;whiteSpace=wrap;html=1;absoluteArcSize=1;arcSize=14;strokeWidth=2;" vertex="1" parent="1">
          <mxGeometry x="550" y="370" width="100" height="60" as="geometry" />
        </mxCell>
        <mxCell id="50WObMACAJJd1p-I8gA1-38" style="edgeStyle=orthogonalEdgeStyle;rounded=0;orthogonalLoop=1;jettySize=auto;html=1;exitX=1;exitY=0.5;exitDx=0;exitDy=0;" edge="1" parent="1" source="50WObMACAJJd1p-I8gA1-22" target="50WObMACAJJd1p-I8gA1-37">
          <mxGeometry relative="1" as="geometry" />
        </mxCell>
        <mxCell id="50WObMACAJJd1p-I8gA1-22" value="Receive Notification" style="rounded=1;whiteSpace=wrap;html=1;absoluteArcSize=1;arcSize=14;strokeWidth=2;" vertex="1" parent="1">
          <mxGeometry x="340" y="480" width="100" height="50" as="geometry" />
        </mxCell>
        <mxCell id="50WObMACAJJd1p-I8gA1-29" style="edgeStyle=orthogonalEdgeStyle;rounded=0;orthogonalLoop=1;jettySize=auto;html=1;exitX=0.5;exitY=1;exitDx=0;exitDy=0;" edge="1" parent="1" source="50WObMACAJJd1p-I8gA1-23">
          <mxGeometry relative="1" as="geometry">
            <mxPoint x="390" y="480" as="targetPoint" />
          </mxGeometry>
        </mxCell>
        <mxCell id="50WObMACAJJd1p-I8gA1-23" value="View Tractors and Book" style="rounded=1;whiteSpace=wrap;html=1;absoluteArcSize=1;arcSize=14;strokeWidth=2;" vertex="1" parent="1">
          <mxGeometry x="150" y="370" width="100" height="60" as="geometry" />
        </mxCell>
        <mxCell id="50WObMACAJJd1p-I8gA1-39" style="edgeStyle=orthogonalEdgeStyle;rounded=0;orthogonalLoop=1;jettySize=auto;html=1;exitX=0.5;exitY=0;exitDx=0;exitDy=0;entryX=0.5;entryY=0;entryDx=0;entryDy=0;" edge="1" parent="1" source="50WObMACAJJd1p-I8gA1-37" target="50WObMACAJJd1p-I8gA1-18">
          <mxGeometry relative="1" as="geometry" />
        </mxCell>
        <mxCell id="50WObMACAJJd1p-I8gA1-37" value="Redirection to Home Page" style="verticalLabelPosition=bottom;verticalAlign=top;html=1;shape=process;whiteSpace=wrap;rounded=1;size=0.14;arcSize=6;" vertex="1" parent="1">
          <mxGeometry x="700" y="330" width="100" height="60" as="geometry" />
        </mxCell>
      </root>
    </mxGraphModel>
  </diagram>
</mxfile>
